<?xml version="1.0" encoding="UTF-8"?>
<svg id="Layer_2" data-name="Layer 2" xmlns="http://www.w3.org/2000/svg" viewBox="0 0 1233.53 269.78">
  <defs>
    <style>
      .cls-1 {
        fill: #cd151b;
      }

      .cls-2 {
        fill: #fff;
      }
    </style>
  </defs>
  <g id="Layer_1-2" data-name="Layer 1">
    <g>
      <g>
        <path class="cls-2" d="M270.89,226.98h-38.32v9.52h28.48v11.28h-28.48v9.68h38.32v11.28h-50.56v-53.12h50.56v11.36Z"/>
        <path class="cls-2" d="M306.09,257.46h29.44v11.28h-41.68v-53.12h12.24v41.84Z"/>
        <path class="cls-2" d="M368.81,268.74h-12.24v-53.12h12.24v53.12Z"/>
        <path class="cls-2" d="M389.69,215.62h51.6v11.36h-19.68v41.76h-12.24v-41.76h-19.68v-11.36Z"/>
        <path class="cls-2" d="M512.81,226.98h-38.32v9.52h28.48v11.28h-28.48v9.68h38.32v11.28h-50.56v-53.12h50.56v11.36Z"/>
        <path class="cls-2" d="M619.93,226.98h-37.36v9.52h27.52v11.28h-27.52v20.96h-12.24v-53.12h49.6v11.36Z"/>
        <path class="cls-2" d="M654.17,268.74h-12.24v-53.12h12.24v53.12Z"/>
        <path class="cls-2" d="M675.05,215.62h51.6v11.36h-19.68v41.76h-12.24v-41.76h-19.68v-11.36Z"/>
        <path class="cls-2" d="M786.97,248.74v-33.12h12.16v53.12h-10.64l-28.64-33.12v33.12h-12.24v-53.12h10.56l28.8,33.12Z"/>
        <path class="cls-2" d="M874.09,226.98h-38.32v9.52h28.48v11.28h-28.48v9.68h38.32v11.28h-50.56v-53.12h50.56v11.36Z"/>
        <path class="cls-2" d="M906.73,251.3v1.04c0,2.08,1.47,3.68,4.4,4.8,2.29.85,5.01,1.28,8.16,1.28,3.47,0,6.29-.4,8.48-1.2,2.72-1.12,4.08-2.83,4.08-5.12,0-1.97-1.49-3.33-4.48-4.08-1.17-.32-2.67-.53-4.48-.64-1.01-.05-2.35-.08-4-.08-7.09,0-12.76-1.08-17-3.24s-6.36-6.31-6.36-12.44,2.24-10.44,6.72-13.08c4.48-2.64,10.16-3.96,17.04-3.96,4,0,7.81.61,11.44,1.84,3.63,1.23,6.6,3.15,8.92,5.76,2.32,2.61,3.48,5.87,3.48,9.76v1.2h-12.24v-1.2c0-2.03-1.28-3.57-3.84-4.64-2.35-.91-4.93-1.36-7.76-1.36-3.2,0-5.79.37-7.76,1.12-2.51.85-3.76,2.37-3.76,4.56,0,1.92,1.41,3.17,4.24,3.76,1.12.27,2.48.45,4.08.56.91.05,2.16.08,3.76.08,7.31,0,13.19,1.09,17.64,3.28,4.45,2.19,6.68,6.45,6.68,12.8s-2.36,10.88-7.08,13.6c-4.72,2.72-10.65,4.08-17.8,4.08-4.05,0-7.96-.6-11.72-1.8-3.76-1.2-6.87-3.11-9.32-5.72-2.45-2.61-3.68-5.92-3.68-9.92v-1.04h12.16Z"/>
        <path class="cls-2" d="M975.77,251.3v1.04c0,2.08,1.47,3.68,4.4,4.8,2.29.85,5.01,1.28,8.16,1.28,3.47,0,6.29-.4,8.48-1.2,2.72-1.12,4.08-2.83,4.08-5.12,0-1.97-1.49-3.33-4.48-4.08-1.17-.32-2.67-.53-4.48-.64-1.01-.05-2.35-.08-4-.08-7.09,0-12.76-1.08-17-3.24-4.24-2.16-6.36-6.31-6.36-12.44s2.24-10.44,6.72-13.08c4.48-2.64,10.16-3.96,17.04-3.96,4,0,7.81.61,11.44,1.84,3.63,1.23,6.6,3.15,8.92,5.76,2.32,2.61,3.48,5.87,3.48,9.76v1.2h-12.24v-1.2c0-2.03-1.28-3.57-3.84-4.64-2.35-.91-4.93-1.36-7.76-1.36-3.2,0-5.79.37-7.76,1.12-2.51.85-3.76,2.37-3.76,4.56,0,1.92,1.41,3.17,4.24,3.76,1.12.27,2.48.45,4.08.56.91.05,2.16.08,3.76.08,7.31,0,13.19,1.09,17.64,3.28,4.45,2.19,6.68,6.45,6.68,12.8s-2.36,10.88-7.08,13.6c-4.72,2.72-10.65,4.08-17.8,4.08-4.05,0-7.96-.6-11.72-1.8s-6.87-3.11-9.32-5.72c-2.45-2.61-3.68-5.92-3.68-9.92v-1.04h12.16Z"/>
      </g>
      <g>
        <g>
          <g>
            <path class="cls-2" d="M168.23,18.53h27.15l-31.89,146.52h-27.15l31.89-146.52Z"/>
            <path class="cls-2" d="M212.61,18.53h58.61l-4.74,22.19h-31.46l-8.4,37.92h28.01l-4.74,22.19h-28.01l-14.01,64.21h-27.15l31.89-146.52Z"/>
            <path class="cls-2" d="M282.85,18.53h58.61l-4.74,22.19h-31.46l-8.4,37.92h28.01l-4.74,22.19h-28.01l-14.01,64.21h-27.15l31.89-146.52Z"/>
            <path class="cls-2" d="M353.09,18.53h58.61l-4.74,22.19h-31.46l-8.4,37.92h28.66l-4.96,22.19h-28.44l-9.27,42.02h35.12l-4.74,22.19h-62.27l31.89-146.52Z"/>
            <path class="cls-2" d="M428.07,18.53h42.45c9.77,0,16.88,2.8,21.33,8.4,4.45,5.6,5.6,13.29,3.45,23.05l-7.54,33.83c-2.3,11.21-7.9,18.75-16.81,22.62l3.45,58.61h-28.01l-.86-55.8h-10.13l-12.07,55.8h-27.15l31.89-146.52ZM451.99,87.69c2.87,0,5.13-.68,6.79-2.05,1.65-1.36,2.83-3.84,3.56-7.43l6.25-28.23c.72-3.16.46-5.6-.75-7.33-1.22-1.72-3.2-2.59-5.93-2.59h-11.42l-10.34,47.62h11.85Z"/>
            <path class="cls-2" d="M518.14,18.53h58.61l-4.74,22.19h-31.46l-8.4,37.92h28.66l-4.96,22.19h-28.44l-9.27,42.02h35.12l-4.74,22.19h-62.27l31.89-146.52Z"/>
            <path class="cls-2" d="M593.12,18.53h31.03l2.15,97.82,21.55-97.82h20.68l-32.1,146.52h-30.81l-2.37-97.82-21.33,97.82h-20.68l31.89-146.52Z"/>
            <path class="cls-2" d="M696.76,40.72h-22.62l4.74-22.19h71.53l-4.74,22.19h-21.76l-27.15,124.32h-27.15l27.15-124.32Z"/>
          </g>
          <path class="cls-1" d="M142.93,10.23c-5.42-6.82-14.07-10.23-25.96-10.23h-51.66s-24.84.09-24.84.09l20.36,20.52-29.83,137.04-16.27,10.85-14.73,9.82h83.67c22.2,0,35.4-10.31,39.6-30.94l23.86-109.09c2.62-11.89,1.22-21.24-4.2-28.06ZM114.61,38.28l-22.29,102.27c-.88,4.2-2.32,7.17-4.33,8.92-2.01,1.75-4.85,2.62-8.52,2.62h-14.42l27.53-125.87h13.9c3.32,0,5.72,1.05,7.21,3.15,1.48,2.1,1.79,5.07.92,8.92Z"/>
        </g>
        <g>
          <g>
            <path class="cls-2" d="M925.23,18.53h42.45c9.77,0,16.88,2.8,21.33,8.4,4.45,5.6,5.6,13.29,3.45,23.05l-7.54,33.83c-2.3,11.21-7.9,18.75-16.81,22.62l3.45,58.61h-28.01l-.86-55.8h-10.13l-12.07,55.8h-27.15l31.89-146.52ZM949.15,87.69c2.87,0,5.13-.68,6.79-2.05,1.65-1.36,2.83-3.84,3.56-7.43l6.25-28.23c.72-3.16.46-5.6-.75-7.33-1.22-1.72-3.2-2.59-5.93-2.59h-11.42l-10.34,47.62h11.85Z"/>
            <path class="cls-2" d="M1015.29,18.53h58.61l-4.74,22.19h-31.46l-8.4,37.92h28.66l-4.96,22.19h-28.44l-9.27,42.02h35.12l-4.74,22.19h-62.27l31.89-146.52Z"/>
            <path class="cls-2" d="M1090.27,18.53h58.61l-4.74,22.19h-31.46l-8.4,37.92h28.66l-4.96,22.19h-28.44l-9.27,42.02h35.12l-4.74,22.19h-62.27l31.89-146.52Z"/>
            <path class="cls-2" d="M1165.25,18.53h42.45c9.77,0,16.88,2.8,21.33,8.4,4.45,5.6,5.6,13.29,3.45,23.05l-19.61,89.63c-3.45,16.95-14.29,25.42-32.54,25.42h-46.97l31.89-146.52ZM1176.89,143.49c3.02,0,5.35-.72,7-2.15,1.65-1.43,2.83-3.88,3.56-7.33l18.31-84.03c.72-3.16.46-5.6-.75-7.33-1.22-1.72-3.2-2.59-5.93-2.59h-11.42l-22.62,103.42h11.85Z"/>
          </g>
          <path class="cls-1" d="M902.08,10.49c-5.42-6.99-14.07-10.49-25.96-10.49h-51.13s-24.73.09-24.73.09l20.27,20.43-29.87,137.22-16.14,10.76-14.73,9.82h83.56c22.2,0,35.31-10.23,39.33-30.68l7.34-34.09c1.75-7.17,1.57-13.24-.52-18.22-2.1-4.98-5.94-8.61-11.54-10.88,12.94-2.97,20.72-10.58,23.34-22.81l4.72-23.34c2.79-11.54,1.48-20.8-3.93-27.8ZM858.81,109.35l-7.08,31.73c-1.05,4.37-2.49,7.43-4.33,9.18-1.84,1.75-4.68,2.62-8.52,2.62h-14.42l12.32-55.59h13.9c3.15,0,5.51,1.09,7.08,3.28,1.57,2.19,1.92,5.11,1.05,8.78ZM874.55,37.5l-5.24,22.81c-.7,4.37-2.1,7.39-4.2,9.05-2.1,1.66-4.9,2.49-8.39,2.49h-14.42l10.23-46.41h13.64c3.32,0,5.77,1.05,7.34,3.15s1.92,5.07,1.05,8.92Z"/>
        </g>
      </g>
    </g>
  </g>
</svg>