<?xml version="1.0" encoding="UTF-8"?>
<svg id="Layer_2" data-name="Layer 2" xmlns="http://www.w3.org/2000/svg" viewBox="0 0 1218.75 360.82">
  <defs>
    <style>
      .cls-1 {
        fill: #cd151b;
      }

      .cls-2 {
        fill: #fff;
      }
    </style>
  </defs>
  <g id="Layer_1-2" data-name="Layer 1">
    <g>
      <path class="cls-2" d="M82.16,20.15H19.89v15.47h46.28v18.33H19.89v15.73h62.27v18.33H0V1.69h82.16v18.46Z"/>
      <path class="cls-2" d="M143.91,1.69l26.91,67.73c.26-2.51,8.84-25.09,25.74-67.73h21.19l-34.19,86.32h-26.65L122.59,1.69h21.32Z"/>
      <path class="cls-2" d="M251.42,44.85c0-7.8,1.73-15.12,5.2-21.97,3.47-6.85,8.49-12.37,15.08-16.58,6.59-4.2,14.3-6.3,23.14-6.3s16.55,2.1,23.14,6.3c6.58,4.21,11.61,9.73,15.08,16.58,3.46,6.85,5.2,14.17,5.2,21.97s-1.73,15.02-5.2,21.91c-3.47,6.89-8.5,12.44-15.08,16.64-6.59,4.21-14.3,6.31-23.14,6.31s-16.55-2.1-23.14-6.31c-6.59-4.2-11.61-9.75-15.08-16.64-3.47-6.89-5.2-14.19-5.2-21.91ZM272.09,44.85c0,4.42.89,8.58,2.67,12.48,1.78,3.9,4.4,7.04,7.86,9.42,3.47,2.38,7.54,3.58,12.22,3.58s8.75-1.19,12.22-3.58c3.46-2.38,6.11-5.53,7.93-9.42,1.82-3.9,2.73-8.06,2.73-12.48s-.91-8.58-2.73-12.48c-1.82-3.9-4.44-7.06-7.87-9.49-3.42-2.43-7.52-3.64-12.29-3.64s-8.86,1.21-12.29,3.64c-3.42,2.43-6.02,5.59-7.8,9.49-1.78,3.9-2.67,8.06-2.67,12.48Z"/>
      <path class="cls-2" d="M404.3,69.68h47.84v18.33h-67.73V1.69h19.89v67.99Z"/>
      <path class="cls-2" d="M501.67,1.69l26.91,67.73c.26-2.51,8.84-25.09,25.74-67.73h21.19l-34.19,86.32h-26.65L480.35,1.69h21.32Z"/>
      <path class="cls-2" d="M700.57,20.15h-62.27v15.47h46.28v18.33h-46.28v15.73h62.27v18.33h-82.16V1.69h82.16v18.46Z"/>
      <path class="cls-2" d="M834.73,88.01h-19.89V1.69h19.89v86.32Z"/>
      <path class="cls-2" d="M948.74,55.51V1.69h19.76v86.32h-17.29l-46.54-53.82v53.82h-19.89V1.69h17.16l46.8,53.82Z"/>
      <path class="cls-2" d="M1012.83,1.69h83.85v18.46h-31.98v67.86h-19.89V20.15h-31.98V1.69Z"/>
      <path class="cls-2" d="M1131.91,44.85c0-7.8,1.73-15.12,5.2-21.97,3.47-6.85,8.49-12.37,15.08-16.58,6.59-4.2,14.3-6.3,23.14-6.3s16.55,2.1,23.14,6.3c6.58,4.21,11.61,9.73,15.08,16.58,3.46,6.85,5.2,14.17,5.2,21.97s-1.74,15.02-5.2,21.91c-3.47,6.89-8.5,12.44-15.08,16.64-6.59,4.21-14.3,6.31-23.14,6.31s-16.55-2.1-23.14-6.31c-6.59-4.2-11.61-9.75-15.08-16.64-3.47-6.89-5.2-14.19-5.2-21.91ZM1152.58,44.85c0,4.42.89,8.58,2.66,12.48,1.78,3.9,4.4,7.04,7.87,9.42,3.47,2.38,7.54,3.58,12.22,3.58s8.75-1.19,12.22-3.58c3.46-2.38,6.11-5.53,7.93-9.42,1.82-3.9,2.73-8.06,2.73-12.48s-.91-8.58-2.73-12.48c-1.82-3.9-4.44-7.06-7.87-9.49-3.42-2.43-7.52-3.64-12.28-3.64s-8.86,1.21-12.29,3.64c-3.42,2.43-6.03,5.59-7.8,9.49-1.78,3.9-2.66,8.06-2.66,12.48Z"/>
      <path class="cls-2" d="M56.35,184.85c0-7.8,1.73-15.12,5.2-21.97,3.47-6.85,8.49-12.37,15.08-16.58,6.58-4.2,14.3-6.3,23.14-6.3,9.45,0,17.77,2.51,24.96,7.54,7.19,5.03,12.35,11.61,15.47,19.76l.91,2.34-22.23.39-.65-.91c-2.08-3.12-4.72-5.55-7.93-7.28-3.21-1.73-6.72-2.6-10.53-2.6-4.77,0-8.86,1.21-12.29,3.64-3.42,2.43-6.02,5.59-7.8,9.49-1.78,3.9-2.67,8.06-2.67,12.48s.89,8.58,2.67,12.48c1.78,3.9,4.4,7.04,7.86,9.42,3.47,2.38,7.54,3.58,12.22,3.58,5.03,0,9.4-1.43,13.13-4.29,3.72-2.86,6.46-6.59,8.19-11.18h-23.27v-18.46h44.59l.26,1.56c.35,1.99.52,4.29.52,6.89,0,7.8-1.73,15.12-5.2,21.97-3.47,6.85-8.47,12.37-15.02,16.58-6.54,4.21-14.28,6.31-23.21,6.31s-16.55-2.1-23.14-6.31c-6.59-4.2-11.61-9.75-15.08-16.64-3.47-6.89-5.2-14.19-5.2-21.91Z"/>
      <path class="cls-2" d="M189.34,141.69h59.41c5.55,0,10.27,1.21,14.17,3.64,3.9,2.43,6.83,5.65,8.77,9.68,1.95,4.03,2.93,8.43,2.93,13.2,0,6.15-1.69,11.57-5.07,16.25-3.38,4.68-8.19,7.63-14.43,8.84.17.26.37.52.58.78.22.26.41.61.58,1.04l19.76,32.89h-22.49l-20.28-34.06h-24.05v34.06h-19.89v-86.32ZM209.23,175.62h39.52c1.91,0,3.38-.61,4.42-1.82,1.04-1.21,1.56-2.77,1.56-4.68v-2.47c0-1.99-.52-3.57-1.56-4.75-1.04-1.17-2.51-1.75-4.42-1.75h-39.52v15.47Z"/>
      <path class="cls-2" d="M405.01,160.15h-62.27v15.47h46.28v18.33h-46.28v15.73h62.27v18.33h-82.16v-86.32h82.16v18.46Z"/>
      <path class="cls-2" d="M506.41,141.69l34.19,86.32h-21.45l-8.32-21.19h-36.01l-8.19,21.19h-21.19l34.32-86.32h26.65ZM481.58,188.49h22.49l-11.44-27.56-11.05,27.56Z"/>
      <path class="cls-2" d="M567.38,141.69h83.85v18.46h-31.98v67.86h-19.89v-67.86h-31.98v-18.46Z"/>
      <path class="cls-2" d="M759.65,195.51v-53.82h19.76v86.32h-17.29l-46.54-53.82v53.82h-19.89v-86.32h17.16l46.8,53.82Z"/>
      <path class="cls-2" d="M911.62,160.15h-62.27v15.47h46.28v18.33h-46.28v15.73h62.27v18.33h-82.16v-86.32h82.16v18.46Z"/>
      <path class="cls-2" d="M975.06,199.67v1.69c0,3.38,2.38,5.98,7.15,7.8,3.73,1.39,8.15,2.08,13.26,2.08,5.63,0,10.22-.65,13.78-1.95,4.42-1.82,6.63-4.59,6.63-8.32,0-3.21-2.43-5.42-7.28-6.63-1.91-.52-4.33-.87-7.28-1.04-1.65-.08-3.81-.13-6.5-.13-11.53,0-20.74-1.75-27.62-5.27-6.89-3.51-10.33-10.25-10.33-20.21s3.64-16.96,10.92-21.25,16.51-6.43,27.69-6.43c6.5,0,12.7,1,18.59,2.99,5.89,1.99,10.72,5.11,14.5,9.36,3.77,4.25,5.65,9.54,5.65,15.86v1.95h-19.89v-1.95c0-3.29-2.08-5.81-6.24-7.54-3.81-1.47-8.02-2.21-12.61-2.21-5.2,0-9.41.61-12.61,1.82-4.08,1.39-6.11,3.86-6.11,7.41,0,3.12,2.3,5.16,6.89,6.11,1.82.43,4.03.74,6.63.91,1.47.09,3.51.13,6.11.13,11.87,0,21.43,1.78,28.67,5.33,7.24,3.55,10.86,10.49,10.86,20.8s-3.83,17.68-11.5,22.1c-7.67,4.42-17.31,6.63-28.92,6.63-6.59,0-12.94-.98-19.05-2.93-6.11-1.95-11.16-5.05-15.14-9.29-3.99-4.25-5.98-9.62-5.98-16.12v-1.69h19.76Z"/>
      <path class="cls-2" d="M1097.65,199.67v1.69c0,3.38,2.38,5.98,7.15,7.8,3.73,1.39,8.15,2.08,13.26,2.08,5.63,0,10.22-.65,13.78-1.95,4.42-1.82,6.63-4.59,6.63-8.32,0-3.21-2.43-5.42-7.28-6.63-1.91-.52-4.33-.87-7.28-1.04-1.65-.08-3.81-.13-6.5-.13-11.53,0-20.74-1.75-27.62-5.27-6.89-3.51-10.33-10.25-10.33-20.21s3.64-16.96,10.92-21.25,16.51-6.43,27.69-6.43c6.5,0,12.7,1,18.59,2.99,5.89,1.99,10.72,5.11,14.5,9.36,3.77,4.25,5.65,9.54,5.65,15.86v1.95h-19.89v-1.95c0-3.29-2.08-5.81-6.24-7.54-3.81-1.47-8.02-2.21-12.61-2.21-5.2,0-9.41.61-12.61,1.82-4.08,1.39-6.11,3.86-6.11,7.41,0,3.12,2.3,5.16,6.89,6.11,1.82.43,4.03.74,6.63.91,1.47.09,3.51.13,6.11.13,11.87,0,21.43,1.78,28.67,5.33,7.24,3.55,10.86,10.49,10.86,20.8s-3.83,17.68-11.5,22.1c-7.67,4.42-17.31,6.63-28.92,6.63-6.59,0-12.94-.98-19.05-2.93-6.11-1.95-11.16-5.05-15.14-9.29-3.99-4.25-5.98-9.62-5.98-16.12v-1.69h19.76Z"/>
    </g>
    <g>
      <path class="cls-1" d="M0,322.86h23.61c2.36,0,4.37.52,6.06,1.57,1.68,1.05,2.95,2.44,3.81,4.18.86,1.74,1.29,3.64,1.29,5.69,0,1.23-.22,2.41-.67,3.53-.45,1.12-1.1,2.15-1.96,3.08,1.31.9,2.3,2.01,2.97,3.34.67,1.33,1.01,2.78,1.01,4.35,0,2.09-.42,4.01-1.26,5.75-.84,1.74-2.11,3.13-3.81,4.18-1.7,1.05-3.75,1.57-6.14,1.57H0v-37.23ZM8.58,337.5h15.03c.79,0,1.41-.26,1.88-.78.47-.52.7-1.2.7-2.02v-1.07c0-.86-.22-1.54-.67-2.05-.45-.51-1.08-.76-1.91-.76h-15.03v6.67ZM8.58,352.19h16.32c.82,0,1.48-.27,1.96-.81.48-.54.73-1.22.73-2.05v-1.07c0-.86-.24-1.55-.73-2.07-.49-.52-1.14-.78-1.96-.78H8.58v6.78Z"/>
      <path class="cls-1" d="M91.73,330.82h-26.86v6.67h19.96v7.91h-19.96v6.78h26.86v7.91h-35.44v-37.23h35.44v7.96Z"/>
      <path class="cls-1" d="M110.57,341.48c0-3.36.75-6.52,2.24-9.48,1.5-2.95,3.66-5.33,6.5-7.15,2.84-1.81,6.17-2.72,9.98-2.72,3.36,0,6.36.71,9,2.13,2.63,1.42,4.77,3.35,6.39,5.78s2.66,5.12,3.11,8.07l.11.84h-8.97l-.11-.56c-.56-2.35-1.68-4.27-3.36-5.75-1.68-1.48-3.74-2.21-6.17-2.21-2.06,0-3.82.52-5.3,1.57-1.48,1.05-2.6,2.41-3.36,4.09-.77,1.68-1.15,3.48-1.15,5.38s.38,3.7,1.15,5.38,1.9,3.04,3.39,4.07c1.49,1.03,3.25,1.54,5.27,1.54,2.43,0,4.49-.74,6.17-2.21,1.68-1.48,2.8-3.39,3.36-5.75l.11-.62h8.97l-.11.84c-.45,2.99-1.49,5.7-3.11,8.13-1.63,2.43-3.76,4.36-6.39,5.8-2.64,1.44-5.64,2.16-9,2.16-3.81,0-7.14-.91-9.98-2.72-2.84-1.81-5.01-4.2-6.5-7.18-1.5-2.97-2.24-6.12-2.24-9.45Z"/>
      <path class="cls-1" d="M166.08,341.48c0-3.36.75-6.52,2.24-9.48,1.5-2.95,3.66-5.33,6.5-7.15,2.84-1.81,6.17-2.72,9.98-2.72s7.14.91,9.98,2.72c2.84,1.81,5.01,4.2,6.5,7.15,1.5,2.95,2.24,6.11,2.24,9.48s-.75,6.48-2.24,9.45c-1.5,2.97-3.66,5.36-6.5,7.18-2.84,1.81-6.17,2.72-9.98,2.72s-7.14-.91-9.98-2.72c-2.84-1.81-5.01-4.2-6.5-7.18-1.5-2.97-2.24-6.12-2.24-9.45ZM175,341.48c0,1.91.38,3.7,1.15,5.38s1.9,3.04,3.39,4.07c1.49,1.03,3.25,1.54,5.27,1.54s3.78-.51,5.27-1.54c1.49-1.03,2.63-2.38,3.42-4.07.78-1.68,1.18-3.48,1.18-5.38s-.39-3.7-1.18-5.38c-.79-1.68-1.92-3.05-3.39-4.09-1.48-1.05-3.24-1.57-5.3-1.57s-3.82.52-5.3,1.57c-1.48,1.05-2.6,2.41-3.36,4.09-.77,1.68-1.15,3.48-1.15,5.38Z"/>
      <path class="cls-1" d="M259.55,322.86v37.23h-8.52v-22.2l-5.61,7.91h-7.85l-5.55-7.91v22.2h-8.58v-37.23h7.46l10.82,14.97,10.32-14.97h7.51Z"/>
      <path class="cls-1" d="M316.57,330.82h-26.86v6.67h19.96v7.91h-19.96v6.78h26.86v7.91h-35.44v-37.23h35.44v7.96Z"/>
      <path class="cls-1" d="M389.02,322.86l14.75,37.23h-9.25l-3.59-9.14h-15.53l-3.53,9.14h-9.14l14.8-37.23h11.49ZM378.31,343.05h9.7l-4.93-11.89-4.77,11.89Z"/>
      <path class="cls-1" d="M450.97,322.86h18.05c3.78,0,7.07.85,9.9,2.55,2.82,1.7,5,3.97,6.53,6.81,1.53,2.84,2.3,5.92,2.3,9.25s-.77,6.36-2.3,9.22c-1.53,2.86-3.72,5.14-6.56,6.84-2.84,1.7-6.13,2.55-9.87,2.55h-18.05v-37.23ZM459.55,352.19h9.48c2.02,0,3.78-.5,5.27-1.49,1.49-.99,2.64-2.31,3.42-3.95.79-1.64,1.18-3.4,1.18-5.27s-.39-3.62-1.18-5.24c-.78-1.63-1.93-2.93-3.42-3.93-1.5-.99-3.25-1.49-5.27-1.49h-9.48v21.36Z"/>
      <path class="cls-1" d="M516.24,360.09h-8.58v-37.23h8.58v37.23Z"/>
      <path class="cls-1" d="M572.59,330.82h-26.19v6.67h19.29v7.91h-19.29v14.69h-8.58v-37.23h34.76v7.96Z"/>
      <path class="cls-1" d="M627.26,330.82h-26.19v6.67h19.29v7.91h-19.29v14.69h-8.58v-37.23h34.76v7.96Z"/>
      <path class="cls-1" d="M682.6,330.82h-26.86v6.67h19.96v7.91h-19.96v6.78h26.86v7.91h-35.44v-37.23h35.44v7.96Z"/>
      <path class="cls-1" d="M703.18,322.86h25.62c2.39,0,4.43.52,6.11,1.57,1.68,1.05,2.94,2.44,3.79,4.18.84,1.74,1.26,3.64,1.26,5.69,0,2.65-.73,4.99-2.19,7.01-1.46,2.02-3.53,3.29-6.22,3.81.07.11.16.22.25.34.09.11.18.26.25.45l8.52,14.19h-9.7l-8.75-14.69h-10.37v14.69h-8.58v-37.23ZM711.76,337.5h17.05c.82,0,1.46-.26,1.91-.78.45-.52.67-1.2.67-2.02v-1.07c0-.86-.22-1.54-.67-2.05-.45-.51-1.09-.76-1.91-.76h-17.05v6.67Z"/>
      <path class="cls-1" d="M796.2,330.82h-26.86v6.67h19.96v7.91h-19.96v6.78h26.86v7.91h-35.44v-37.23h35.44v7.96Z"/>
      <path class="cls-1" d="M844.36,346.08v-23.21h8.52v37.23h-7.46l-20.07-23.21v23.21h-8.58v-37.23h7.4l20.19,23.21Z"/>
      <path class="cls-1" d="M872.01,322.86h36.17v7.96h-13.79v29.27h-8.58v-29.27h-13.79v-7.96Z"/>
      <path class="cls-1" d="M956.06,322.86h23.61c2.36,0,4.37.52,6.06,1.57,1.68,1.05,2.95,2.44,3.81,4.18.86,1.74,1.29,3.64,1.29,5.69,0,1.23-.22,2.41-.67,3.53-.45,1.12-1.1,2.15-1.96,3.08,1.31.9,2.3,2.01,2.97,3.34.67,1.33,1.01,2.78,1.01,4.35,0,2.09-.42,4.01-1.26,5.75-.84,1.74-2.11,3.13-3.81,4.18-1.7,1.05-3.75,1.57-6.14,1.57h-24.9v-37.23ZM964.63,337.5h15.03c.79,0,1.41-.26,1.88-.78.47-.52.7-1.2.7-2.02v-1.07c0-.86-.22-1.54-.67-2.05-.45-.51-1.08-.76-1.91-.76h-15.03v6.67ZM964.63,352.19h16.32c.82,0,1.48-.27,1.96-.81.48-.54.73-1.22.73-2.05v-1.07c0-.86-.24-1.55-.73-2.07-.49-.52-1.14-.78-1.96-.78h-16.32v6.78Z"/>
      <path class="cls-1" d="M1012.35,322.86h25.62c2.39,0,4.43.52,6.11,1.57,1.68,1.05,2.94,2.44,3.79,4.18.84,1.74,1.26,3.64,1.26,5.69,0,2.65-.73,4.99-2.19,7.01-1.46,2.02-3.53,3.29-6.22,3.81.07.11.16.22.25.34.09.11.18.26.25.45l8.52,14.19h-9.7l-8.75-14.69h-10.37v14.69h-8.58v-37.23ZM1020.93,337.5h17.05c.82,0,1.46-.26,1.91-.78.45-.52.67-1.2.67-2.02v-1.07c0-.86-.22-1.54-.67-2.05-.45-.51-1.09-.76-1.91-.76h-17.05v6.67Z"/>
      <path class="cls-1" d="M1105.37,330.82h-26.86v6.67h19.96v7.91h-19.96v6.78h26.86v7.91h-35.44v-37.23h35.44v7.96Z"/>
      <path class="cls-1" d="M1161.39,330.82h-26.86v6.67h19.96v7.91h-19.96v6.78h26.86v7.91h-35.44v-37.23h35.44v7.96Z"/>
      <path class="cls-1" d="M1181.96,322.86h18.05c3.78,0,7.07.85,9.9,2.55,2.82,1.7,5,3.97,6.53,6.81,1.53,2.84,2.3,5.92,2.3,9.25s-.77,6.36-2.3,9.22c-1.53,2.86-3.72,5.14-6.56,6.84-2.84,1.7-6.13,2.55-9.87,2.55h-18.05v-37.23ZM1190.54,352.19h9.48c2.02,0,3.78-.5,5.27-1.49,1.49-.99,2.64-2.31,3.42-3.95.79-1.64,1.18-3.4,1.18-5.27s-.39-3.62-1.18-5.24c-.78-1.63-1.93-2.93-3.42-3.93-1.5-.99-3.25-1.49-5.27-1.49h-9.48v21.36Z"/>
    </g>
  </g>
</svg>